<?xml version="1.0" standalone="no"?>
<!DOCTYPE svg PUBLIC "-//W3C//DTD SVG 20010904//EN"
 "http://www.w3.org/TR/2001/REC-SVG-20010904/DTD/svg10.dtd">
<svg version="1.0" xmlns="http://www.w3.org/2000/svg"
 width="228.000000pt" height="221.000000pt" viewBox="0 0 228.000000 221.000000"
 preserveAspectRatio="xMidYMid meet">

<g transform="translate(0.000000,221.000000) scale(0.100000,-0.100000)"
fill="#000000" stroke="none">
<path d="M1000 2194 c-300 -54 -494 -153 -675 -345 -162 -173 -254 -378 -285
-632 -13 -110 -3 -227 30 -359 144 -564 728 -916 1309 -789 219 48 397 148
557 313 134 137 219 287 270 474 25 89 28 116 28 264 0 147 -3 176 -27 263
-106 397 -406 688 -812 788 -78 20 -333 34 -395 23z m412 -47 c458 -120 781
-510 805 -973 30 -582 -424 -1075 -1023 -1110 -438 -25 -852 221 -1038 617
-64 135 -88 237 -93 395 -8 206 20 340 104 508 58 116 91 164 182 259 147 154
319 253 528 306 114 29 124 30 288 26 121 -2 169 -8 247 -28z"/>
<path d="M954 2109 c-11 -19 14 -35 34 -21 32 23 43 24 62 7 24 -21 27 -13 4
9 -18 18 -89 22 -100 5z m36 -9 c0 -5 -7 -10 -16 -10 -8 0 -12 5 -9 10 3 6 10
10 16 10 5 0 9 -4 9 -10z"/>
<path d="M1111 2099 c1 -8 -1 -22 -6 -32 -13 -31 11 -45 73 -44 l57 2 0 33 c0
23 4 32 16 32 10 0 16 -7 15 -17 -1 -20 31 -30 47 -14 8 8 7 16 -5 27 -22 23
-201 34 -197 13z m109 -24 c19 -22 4 -33 -45 -33 -48 1 -60 9 -51 33 7 20 80
20 96 0z m87 -1 c-3 -3 -12 -4 -19 -1 -8 3 -5 6 6 6 11 1 17 -2 13 -5z"/>
<path d="M703 2073 c-7 -2 -13 -12 -12 -21 0 -11 2 -12 6 -4 2 6 13 12 24 12
10 0 19 5 19 10 0 10 -16 12 -37 3z"/>
<path d="M1062 2054 c-7 -13 -17 -15 -41 -11 -20 4 -30 3 -26 -3 3 -6 -3 -10
-14 -10 -12 0 -21 -5 -21 -11 0 -8 11 -9 31 -5 17 3 40 6 50 6 10 0 23 9 29
21 14 25 6 38 -8 13z"/>
<path d="M1344 2056 c-3 -8 0 -25 7 -37 6 -13 15 -34 20 -48 l7 -26 1 28 c1
15 -6 39 -15 53 -20 30 -11 43 18 25 17 -10 19 -10 16 1 -6 19 -47 22 -54 4z"/>
<path d="M728 2053 c-23 -6 -31 -32 -11 -40 10 -4 23 2 34 15 17 22 39 28 52
15 4 -3 -1 -12 -11 -20 -16 -12 -16 -14 1 -27 16 -13 15 -15 -14 -25 -18 -6
-33 -11 -35 -11 -1 0 0 9 3 20 4 13 0 20 -10 20 -21 0 -40 -27 -33 -46 15 -40
136 11 136 57 0 36 -56 57 -112 42z m17 -23 c-3 -5 -10 -10 -16 -10 -5 0 -9 5
-9 10 0 6 7 10 16 10 8 0 12 -4 9 -10z m75 -20 c0 -5 -7 -10 -15 -10 -8 0 -15
5 -15 10 0 6 7 10 15 10 8 0 15 -4 15 -10z m-80 -28 c0 -13 -12 -22 -22 -16
-10 6 -1 24 13 24 5 0 9 -4 9 -8z"/>
<path d="M1530 2032 c0 -4 5 -13 12 -20 14 -14 92 -16 83 -2 -3 5 -19 7 -35 3
-22 -4 -31 -1 -36 11 -6 16 -24 22 -24 8z"/>
<path d="M1512 1978 c-15 -15 -3 -38 18 -38 10 0 23 -7 30 -15 16 -19 44 -19
60 0 14 17 5 51 -15 59 -19 7 -19 -8 0 -24 21 -17 19 -30 -5 -30 -11 0 -27 11
-35 24 -19 29 -39 38 -53 24z m38 -14 c0 -2 -7 -4 -15 -4 -8 0 -15 4 -15 10 0
5 7 7 15 4 8 -4 15 -8 15 -10z"/>
<path d="M1302 1948 c3 -7 18 -13 34 -14 29 -1 29 -1 1 3 -15 2 -25 9 -22 14
4 5 1 9 -5 9 -7 0 -10 -6 -8 -12z"/>
<path d="M1690 1947 c0 -7 -10 -17 -22 -22 -31 -14 -32 -29 -6 -58 47 -52 86
-43 95 20 4 34 2 43 -18 57 -28 19 -49 21 -49 3z m43 -24 c18 -21 12 -73 -9
-73 -21 0 -68 45 -60 58 10 17 36 15 60 -5 15 -13 14 -10 -3 10 -14 15 -20 27
-14 27 5 0 17 -8 26 -17z"/>
<path d="M650 1944 c0 -6 11 -23 25 -38 25 -27 67 -34 95 -16 22 14 5 23 -20
10 -30 -16 -62 -6 -82 27 -10 15 -18 23 -18 17z"/>
<path d="M499 1901 c-7 -19 -22 -36 -35 -41 -22 -9 -34 -30 -16 -30 14 0 62
36 56 42 -3 4 0 16 6 28 6 12 9 24 6 27 -3 4 -11 -8 -17 -26z"/>
<path d="M565 1919 c-11 -16 1 -22 24 -10 29 16 38 -6 13 -32 -19 -18 -25 -19
-48 -8 -24 10 -26 10 -16 -2 15 -18 8 -38 -19 -56 -15 -9 -24 -10 -32 -2 -17
17 -36 13 -62 -14 -29 -28 -33 -70 -9 -79 21 -8 62 18 76 49 6 13 23 29 39 35
16 7 31 21 34 31 4 10 15 19 25 19 27 0 52 38 39 62 -11 19 -54 25 -64 7z
m-100 -159 c-31 -32 -55 -39 -55 -16 0 22 61 69 73 57 8 -8 2 -20 -18 -41z"/>
<path d="M980 1915 c-166 -33 -291 -99 -414 -214 -163 -155 -246 -349 -246
-576 0 -365 226 -663 590 -777 65 -20 95 -23 230 -23 177 0 235 12 366 75 322
155 509 507 450 849 -47 271 -212 485 -463 603 -151 71 -352 95 -513 63z m301
-26 c5 -8 9 -9 9 -3 0 7 11 9 25 6 14 -2 25 -9 25 -14 0 -6 7 -7 16 -4 38 15
290 -113 279 -142 -3 -7 0 -10 5 -7 11 7 59 -25 60 -40 0 -5 -5 -4 -12 3 -7 7
-17 12 -22 12 -6 0 0 -7 13 -16 18 -13 20 -19 10 -26 -11 -8 -10 -9 4 -4 17 5
25 -18 10 -27 -5 -2 -3 -2 4 -1 7 2 15 -1 18 -6 3 -6 16 -15 28 -20 19 -9 20
-9 7 2 -25 21 -62 78 -51 78 6 0 15 -8 20 -18 5 -10 25 -35 44 -56 20 -21 33
-44 30 -52 -2 -7 0 -21 7 -31 9 -16 10 -15 4 6 -12 43 13 13 50 -62 57 -115
79 -213 79 -347 1 -126 -13 -195 -64 -314 -77 -180 -247 -341 -438 -415 -116
-45 -183 -54 -338 -48 -152 5 -235 26 -349 88 -341 183 -498 573 -378 939 85
263 320 466 604 526 87 18 288 14 301 -7z"/>
<path d="M1351 1861 c-25 -16 28 -35 59 -22 23 9 23 10 -10 8 -23 -1 -34 2
-32 11 2 14 1 14 -17 3z"/>
<path d="M1430 1833 c-17 -7 -30 -23 -30 -37 0 -6 6 -1 14 10 18 24 31 13 17
-15 -7 -13 -8 -22 -1 -26 5 -3 10 1 10 10 0 8 9 23 20 32 14 13 16 19 7 25
-14 9 -16 9 -37 1z"/>
<path d="M1049 1776 c8 -10 9 -16 1 -21 -14 -9 -13 -65 2 -65 6 0 9 3 5 6 -3
4 0 21 7 38 11 26 11 34 0 44 -18 17 -29 15 -15 -2z"/>
<path d="M1200 1781 c0 -5 5 -13 10 -16 6 -3 10 -2 10 4 0 5 -4 13 -10 16 -5
3 -10 2 -10 -4z"/>
<path d="M973 1768 c0 -7 -3 -24 -7 -38 l-7 -25 15 25 c17 28 20 50 8 50 -5 0
-9 -6 -9 -12z"/>
<path d="M1194 1728 c2 -21 8 -43 12 -49 5 -9 2 -10 -9 -6 -16 6 -16 4 -2 -23
8 -16 15 -39 15 -52 0 -19 2 -20 10 -8 8 13 10 12 10 -2 0 -10 -5 -18 -10 -18
-6 0 -15 -11 -20 -25 -5 -14 -14 -25 -20 -25 -5 0 -10 -5 -10 -11 0 -6 6 -9
13 -6 23 9 17 -34 -10 -70 -14 -18 -23 -36 -19 -40 3 -3 6 -1 6 5 0 7 6 12 14
12 19 0 28 25 35 95 l6 60 18 -32 c11 -20 15 -44 12 -60 -3 -16 -8 -48 -11
-73 -3 -25 -8 -52 -10 -60 -3 -8 -8 -35 -10 -60 -3 -25 -7 -51 -9 -58 -3 -7 3
-15 13 -18 37 -12 61 -27 56 -36 -3 -4 -10 -8 -15 -8 -6 0 -7 5 -4 10 3 6 -1
10 -10 10 -23 0 -14 -23 13 -35 12 -5 22 -13 22 -17 0 -9 -29 1 -47 15 -10 7
-13 4 -13 -11 0 -16 9 -22 39 -27 22 -4 45 -13 52 -21 15 -19 21 -18 52 6 l26
20 -36 38 c-40 42 -65 92 -53 107 4 6 11 21 15 35 6 23 5 22 -13 -5 -10 -16
-27 -37 -37 -45 -17 -14 -17 -13 -7 5 5 11 16 35 22 53 7 17 16 33 21 33 5 1
13 2 18 3 6 0 16 8 23 16 11 12 11 12 -4 1 -15 -11 -18 -11 -18 0 0 11 -2 11
-10 -1 -19 -30 -9 3 11 36 16 26 18 37 9 54 -6 11 -8 20 -6 20 11 0 33 -57 34
-87 1 -35 8 -53 21 -53 5 0 1 30 -8 66 -18 70 -58 124 -93 124 -10 0 -17 3
-16 8 1 4 -4 20 -10 35 -7 15 -15 40 -18 54 -6 24 -5 25 20 19 19 -5 26 -3 26
8 0 10 -6 13 -15 10 -18 -7 -20 17 -2 35 10 11 9 13 -1 7 -14 -8 -37 12 -58
51 l-14 28 4 -37z m91 -298 c-3 -5 -11 -10 -16 -10 -6 0 -7 5 -4 10 3 6 11 10
16 10 6 0 7 -4 4 -10z m25 -280 c0 -5 -5 -10 -11 -10 -5 0 -7 5 -4 10 3 6 8
10 11 10 2 0 4 -4 4 -10z m35 -40 c-3 -5 -12 -10 -18 -10 -7 0 -6 4 3 10 19
12 23 12 15 0z"/>
<path d="M1220 1738 c0 -9 5 -20 10 -23 13 -8 13 5 0 25 -8 13 -10 13 -10 -2z"/>
<path d="M1302 1710 c0 -14 2 -19 5 -12 2 6 2 18 0 25 -3 6 -5 1 -5 -13z"/>
<path d="M961 1663 c6 -7 15 -13 20 -13 5 0 6 6 3 13 -3 8 -11 14 -19 14 -11
0 -12 -4 -4 -14z"/>
<path d="M1032 1673 c-10 -4 -8 -9 7 -19 16 -11 19 -22 15 -47 l-5 -32 20 39
c24 45 25 50 10 41 -6 -4 -16 0 -22 8 -7 8 -18 12 -25 10z"/>
<path d="M1295 1669 c-4 -6 -5 -13 -2 -16 7 -7 27 6 27 18 0 12 -17 12 -25 -2z"/>
<path d="M1165 1629 c-4 -6 -4 -13 -1 -17 11 -10 36 -11 36 -1 0 5 -8 9 -17 9
-15 0 -16 2 -3 10 9 6 10 10 3 10 -6 0 -15 -5 -18 -11z"/>
<path d="M1335 1620 c3 -5 8 -10 11 -10 2 0 4 5 4 10 0 6 -5 10 -11 10 -5 0
-7 -4 -4 -10z"/>
<path d="M1108 1613 c7 -3 16 -2 19 1 4 3 -2 6 -13 5 -11 0 -14 -3 -6 -6z"/>
<path d="M1720 1594 c0 -5 7 -18 15 -28 12 -16 15 -17 15 -4 0 8 -7 21 -15 28
-8 7 -15 9 -15 4z"/>
<path d="M1013 1517 c-49 -40 -83 -91 -98 -147 -3 -14 5 -5 18 20 13 25 43 60
68 78 24 19 48 45 53 58 12 30 23 31 29 2 5 -21 5 -21 4 1 -3 36 -17 34 -74
-12z"/>
<path d="M1765 1540 c3 -5 8 -10 11 -10 2 0 4 5 4 10 0 6 -5 10 -11 10 -5 0
-7 -4 -4 -10z"/>
<path d="M1780 1511 c0 -5 5 -13 10 -16 6 -3 10 -2 10 4 0 5 -4 13 -10 16 -5
3 -10 2 -10 -4z"/>
<path d="M1072 1480 c0 -14 2 -19 5 -12 2 6 2 18 0 25 -3 6 -5 1 -5 -13z"/>
<path d="M1028 1435 c5 -11 12 -27 15 -35 5 -13 6 -13 6 1 1 8 -6 24 -15 35
-15 19 -15 19 -6 -1z"/>
<path d="M990 1382 c0 -16 -4 -21 -12 -16 -10 6 -10 4 0 -8 22 -27 8 -115 -26
-157 -31 -38 -108 -83 -132 -77 -24 5 -43 -22 -38 -54 3 -18 0 -27 -6 -23 -5
4 -7 -1 -3 -11 4 -10 7 -22 7 -27 0 -11 30 -12 31 -1 0 4 3 19 5 35 4 21 1 27
-13 27 -15 0 -14 4 7 20 30 23 48 27 26 5 -8 -9 -12 -23 -9 -31 4 -11 9 -12
17 -4 6 6 11 16 11 23 0 7 8 12 17 12 9 0 26 10 38 23 21 23 36 30 25 12 -3
-5 -1 -10 4 -10 6 0 11 -6 11 -14 0 -14 29 -26 68 -26 13 0 21 -4 18 -9 -3 -5
1 -15 10 -22 8 -7 23 -28 33 -48 l18 -35 18 28 18 27 27 -33 c28 -33 28 -33
49 -14 20 18 20 20 3 33 -15 13 -15 13 5 3 19 -9 30 -6 64 15 38 25 40 27 24
45 -14 15 -22 16 -58 7 -23 -6 -48 -19 -56 -30 -7 -10 -21 -17 -31 -14 -22 6
-50 -10 -50 -28 0 -8 -4 -15 -9 -15 -10 0 -9 19 2 36 4 7 1 17 -7 23 -14 11
-30 65 -27 88 1 7 -8 10 -24 7 -14 -2 -34 0 -43 6 -16 11 -15 11 1 6 24 -8 54
19 32 28 -23 9 -18 28 8 26 35 -3 43 0 27 10 -9 6 -10 10 -3 10 8 0 9 9 3 29
-4 16 -6 32 -3 35 9 9 -8 66 -18 60 -5 -3 -7 -15 -4 -27 5 -18 4 -19 -4 -7
-10 13 -12 13 -21 0 -9 -12 -10 -8 -8 15 1 17 -3 39 -10 50 -11 19 -11 19 -12
-3z m294 -343 c-8 -14 -24 -10 -24 6 0 9 6 12 15 9 8 -4 12 -10 9 -15z"/>
<path d="M1090 1365 c0 -8 2 -15 4 -15 2 0 6 7 10 15 3 8 1 15 -4 15 -6 0 -10
-7 -10 -15z"/>
<path d="M1174 1358 c-4 -13 -7 -26 -6 -30 1 -5 -2 -8 -8 -8 -17 0 -25 5 -22
13 1 5 -2 6 -8 2 -13 -8 -13 -56 0 -89 6 -17 6 -26 0 -26 -6 0 -10 9 -10 20 0
11 -4 20 -8 20 -14 0 -6 -55 9 -55 18 -1 39 27 32 40 -4 5 -2 6 3 2 5 -5 13
22 20 60 12 71 11 90 -2 51z"/>
<path d="M1102 1295 c0 -16 2 -22 5 -12 2 9 2 23 0 30 -3 6 -5 -1 -5 -18z"/>
<path d="M1594 1312 c3 -5 0 -13 -6 -15 -9 -4 -10 -6 -1 -6 17 -1 25 16 12 25
-7 4 -9 3 -5 -4z"/>
<path d="M1674 1240 c0 -13 4 -16 10 -10 7 7 7 13 0 20 -6 6 -10 3 -10 -10z"/>
<path d="M1160 1215 c-8 -9 -8 -15 -2 -15 12 0 26 19 19 26 -2 2 -10 -2 -17
-11z"/>
<path d="M1530 1211 c0 -6 -15 -11 -32 -13 l-33 -3 35 -21 c19 -12 51 -24 70
-26 29 -5 39 -1 57 22 l22 28 -27 0 c-15 0 -30 -5 -34 -12 -6 -8 -11 -7 -17 3
-5 8 -14 10 -22 6 -9 -6 -11 -3 -6 8 3 10 2 17 -3 17 -6 0 -10 -4 -10 -9z"/>
<path d="M825 1190 c-3 -5 1 -10 10 -10 9 0 13 5 10 10 -3 6 -8 10 -10 10 -2
0 -7 -4 -10 -10z"/>
<path d="M1155 1150 c-4 -6 -15 -8 -26 -5 -15 5 -19 1 -19 -19 0 -14 5 -28 12
-32 8 -5 9 -2 5 9 -3 9 -2 16 3 14 5 -1 16 7 25 18 16 20 16 20 12 -2 -3 -13
-1 -23 4 -23 12 0 12 37 0 45 -5 3 -13 1 -16 -5z"/>
<path d="M1466 1128 c7 -11 34 -10 34 1 0 6 -9 9 -19 8 -11 0 -17 -5 -15 -9z"/>
<path d="M1560 1114 c-17 -9 -20 -14 -9 -14 9 0 22 7 29 15 15 18 13 18 -20
-1z"/>
<path d="M1482 1098 c5 -15 37 -18 41 -4 1 5 -9 11 -21 13 -16 2 -22 -1 -20
-9z"/>
<path d="M1410 1091 c0 -6 5 -13 10 -16 6 -3 7 -17 4 -31 -4 -14 -2 -24 5 -24
6 0 11 14 11 30 0 17 -5 30 -11 30 -5 0 -7 5 -4 10 3 6 1 10 -4 10 -6 0 -11
-4 -11 -9z"/>
<path d="M649 1011 c14 -25 20 -27 17 -4 -2 9 -8 19 -15 21 -10 3 -10 0 -2
-17z"/>
<path d="M725 1019 c-9 -14 -2 -20 14 -10 8 6 9 11 3 15 -6 3 -14 1 -17 -5z"/>
<path d="M615 990 c3 -5 11 -10 16 -10 6 0 7 5 4 10 -3 6 -11 10 -16 10 -6 0
-7 -4 -4 -10z"/>
<path d="M880 989 c0 -5 5 -7 10 -4 6 3 10 8 10 11 0 2 -4 4 -10 4 -5 0 -10
-5 -10 -11z"/>
<path d="M1119 973 c-12 -15 -12 -16 5 -10 10 4 26 2 35 -5 10 -8 9 -5 -3 10
-23 26 -20 26 -37 5z"/>
<path d="M1425 970 c-4 -6 3 -10 14 -10 25 0 27 6 6 13 -8 4 -17 2 -20 -3z"/>
<path d="M693 963 c-9 -3 -10 -10 -4 -21 4 -9 11 -30 15 -46 6 -26 5 -27 -9
-13 -8 9 -15 20 -15 26 0 6 -5 11 -11 11 -5 0 -7 5 -4 10 3 6 1 10 -4 10 -6 0
-11 -2 -11 -5 0 -12 38 -62 82 -108 50 -53 66 -56 23 -5 -14 16 -25 36 -25 44
0 8 -7 29 -16 45 -12 24 -13 34 -3 45 11 14 5 17 -18 7z"/>
<path d="M836 955 c25 -19 40 -19 24 0 -7 8 -20 15 -28 15 -13 0 -12 -3 4 -15z"/>
<path d="M939 954 c-14 -18 -13 -93 2 -109 6 -6 9 8 8 37 -1 26 3 54 10 62 7
8 8 17 3 20 -6 3 -16 -1 -23 -10z"/>
<path d="M1467 944 c-11 -12 -8 -24 6 -21 20 4 8 -43 -21 -82 -20 -27 -22 -32
-7 -21 11 8 24 21 28 28 4 6 15 12 22 12 8 0 15 5 15 12 0 7 12 26 28 42 15
17 18 23 6 13 -25 -21 -38 -22 -30 -2 3 8 1 15 -3 15 -5 0 -16 2 -23 5 -8 3
-17 2 -21 -1z"/>
<path d="M830 898 c0 -13 12 -45 26 -72 25 -47 25 -50 9 -62 -15 -11 -22 -10
-44 5 -18 13 -31 16 -41 9 -16 -10 -48 0 -90 29 l-25 18 25 -31 c18 -22 44
-37 90 -52 l65 -21 32 37 c32 36 43 59 23 47 -12 -8 -52 55 -47 75 2 9 -2 21
-10 28 -11 11 -13 9 -13 -10z"/>
<path d="M1553 899 c-18 -12 -33 -22 -33 -24 0 -9 41 10 56 26 22 24 17 24
-23 -2z"/>
<path d="M1475 802 c-46 -24 -64 -37 -52 -40 19 -4 95 37 117 62 16 20 19 21
-65 -22z"/>
<path d="M1433 708 c7 -4 26 -8 42 -8 17 0 35 4 42 8 6 4 -13 7 -42 7 -29 0
-48 -3 -42 -7z"/>
<path d="M720 683 c0 -5 20 -16 44 -25 42 -15 44 -15 49 1 3 15 -3 18 -35 19
-22 1 -44 4 -49 8 -5 3 -9 1 -9 -3z"/>
<path d="M1378 573 c7 -3 16 -2 19 1 4 3 -2 6 -13 5 -11 0 -14 -3 -6 -6z"/>
<path d="M820 530 c21 -72 76 -115 141 -108 33 3 33 4 -21 22 -60 20 -90 41
-90 63 0 8 -4 11 -10 8 -5 -3 -10 3 -10 14 0 11 -4 22 -9 26 -6 3 -6 -6 -1
-25z"/>
<path d="M1200 450 c0 -5 7 -10 15 -10 8 0 15 5 15 10 0 6 -7 10 -15 10 -8 0
-15 -4 -15 -10z"/>
<path d="M1800 1850 c6 -11 13 -20 15 -20 3 0 5 9 5 20 0 11 -7 20 -15 20 -13
0 -14 -4 -5 -20z"/>
<path d="M1855 1816 c17 -8 32 -12 34 -10 7 6 -2 11 -34 17 l-30 6 30 -13z"/>
<path d="M1750 1807 c0 -7 10 -23 23 -35 30 -28 52 -55 52 -63 0 -4 3 -11 8
-15 4 -4 7 -1 7 6 0 7 7 21 16 31 19 21 12 69 -11 69 -12 0 -12 -5 -3 -25 6
-14 9 -27 6 -30 -10 -10 -36 6 -41 26 -3 10 -12 19 -21 19 -9 0 -16 5 -16 11
0 6 7 8 16 5 8 -3 12 -2 9 4 -9 15 -45 12 -45 -3z"/>
<path d="M306 1668 c-18 -29 -38 -63 -45 -75 -14 -28 -14 -55 0 -30 10 17 13
16 30 -13 11 -17 25 -30 31 -28 22 8 19 25 -7 36 -15 7 -25 20 -25 32 0 11 2
20 4 20 2 0 11 3 19 6 8 3 22 -3 32 -12 14 -14 18 -15 25 -4 14 22 0 32 -36
28 -39 -5 -39 -5 -18 27 9 14 21 21 30 18 19 -7 44 15 37 33 -11 30 -43 14
-77 -38z m58 27 c-6 -16 -24 -21 -24 -7 0 11 11 22 21 22 5 0 6 -7 3 -15z"/>
<path d="M1877 1713 c-20 -19 18 -110 57 -135 32 -22 60 1 49 40 -3 14 -11 18
-24 15 -10 -3 -19 -9 -19 -14 0 -5 7 -6 15 -3 9 4 15 0 15 -10 0 -26 -27 -18
-51 15 -24 35 -34 83 -16 76 7 -2 11 -11 11 -20 -1 -9 2 -14 7 -11 15 9 10 33
-10 44 -23 12 -26 12 -34 3z"/>
<path d="M1970 1690 c-19 -15 -21 -20 -9 -20 9 0 24 -12 34 -26 9 -14 19 -23
22 -20 3 3 -2 17 -11 32 -10 14 -15 28 -12 32 8 7 29 -21 57 -78 12 -24 24
-39 27 -32 4 14 -58 124 -73 128 -5 2 -21 -5 -35 -16z"/>
<path d="M2053 1348 c-19 -25 -21 -46 -7 -67 19 -26 55 -27 79 -1 15 17 16 24
5 50 -10 23 -19 30 -40 30 -15 0 -32 -6 -37 -12z"/>
<path d="M172 1338 c-37 -37 12 -113 57 -89 46 25 32 101 -19 101 -14 0 -31
-5 -38 -12z"/>
<path d="M2056 1048 c-8 -18 -17 -51 -20 -73 l-7 -41 47 -12 c26 -7 48 -11 50
-9 2 2 9 30 15 61 9 48 8 61 -6 82 -24 36 -63 32 -79 -8z m70 -32 c3 -14 3
-34 -1 -45 -5 -17 -12 -20 -33 -15 -37 9 -40 14 -30 52 7 25 14 32 33 32 18 0
26 -7 31 -24z"/>
<path d="M156 1054 c-19 -18 -21 -71 -4 -111 6 -15 10 -37 9 -47 -2 -14 2 -17
14 -12 9 3 21 6 26 6 12 0 11 51 -1 70 -8 12 -10 11 -10 -7 0 -30 -18 -29 -26
1 -9 37 -1 70 19 74 32 6 47 -17 47 -75 0 -34 4 -52 10 -48 18 11 11 98 -10
133 -22 35 -49 41 -74 16z"/>
<path d="M2095 885 c-5 -2 -29 -9 -52 -15 -33 -8 -43 -16 -43 -31 0 -22 59
-114 67 -105 3 3 7 27 8 53 1 35 7 50 23 61 32 21 30 49 -3 37z m-32 -65 c-4
-17 -23 -29 -23 -16 0 2 -3 11 -6 20 -4 11 0 16 14 16 15 0 19 -5 15 -20z"/>
<path d="M176 845 c4 -8 10 -15 16 -15 13 0 39 -66 32 -84 -3 -8 -3 -20 1 -26
4 -6 21 8 41 35 45 59 40 78 -27 93 -65 15 -70 15 -63 -3z m94 -34 c0 -13 -26
-32 -33 -24 -14 13 -6 33 13 33 11 0 20 -4 20 -9z"/>
<path d="M1955 741 c-3 -6 2 -14 11 -19 15 -9 16 -14 4 -41 -13 -32 -24 -39
-35 -21 -7 11 -25 4 -25 -9 0 -5 16 -21 36 -36 26 -20 39 -24 47 -16 8 8 6 16
-7 30 -17 18 -17 21 -1 45 13 20 21 24 35 16 13 -7 21 -5 30 5 9 11 4 18 -29
34 -45 23 -57 25 -66 12z"/>
<path d="M310 716 c-5 -15 -10 -31 -10 -36 0 -5 -9 -15 -19 -22 -26 -18 -12
-45 14 -30 10 5 36 7 57 4 33 -4 37 -2 32 12 -4 10 -18 16 -35 16 -33 0 -33 0
-17 35 8 19 9 28 0 37 -8 8 -14 4 -22 -16z"/>
<path d="M1851 581 c-42 -58 -13 -91 40 -47 31 26 49 33 49 18 0 -12 -34 -42
-47 -42 -6 0 -13 -7 -17 -15 -10 -27 25 -17 55 16 32 34 39 79 13 79 -9 0 -29
-11 -46 -25 -16 -14 -34 -25 -39 -25 -18 0 -8 19 24 44 29 23 30 26 10 26 -13
0 -30 -12 -42 -29z"/>
<path d="M353 573 c-36 -5 -44 -20 -15 -30 27 -10 61 -44 56 -57 -3 -7 1 -18
9 -24 11 -9 17 -1 31 43 9 30 14 60 11 65 -6 10 -30 11 -92 3z m61 -37 c-7
-18 -25 -17 -31 1 -2 6 4 13 14 15 23 5 25 4 17 -16z"/>
<path d="M480 512 c0 -5 7 -15 15 -22 13 -10 11 -17 -11 -46 -36 -47 -20 -64
22 -23 29 28 35 31 51 18 10 -7 20 -14 22 -16 2 -1 -8 -18 -22 -36 -19 -25
-23 -37 -15 -45 8 -8 14 -7 23 5 18 24 59 -1 51 -32 -8 -31 20 -42 30 -12 4
12 14 27 22 33 22 16 9 39 -40 70 -24 15 -67 47 -95 72 -29 24 -53 40 -53 34z
m153 -126 c20 -15 23 -36 5 -36 -21 1 -51 28 -43 39 8 14 16 13 38 -3z"/>
<path d="M1786 512 c-3 -5 12 -26 33 -46 50 -48 68 -30 20 20 -34 35 -44 40
-53 26z"/>
<path d="M1723 452 c-24 -15 -43 -31 -43 -36 0 -6 12 -27 26 -48 28 -40 50
-41 40 -3 -8 31 15 48 53 40 37 -8 48 8 17 25 -14 7 -27 21 -29 31 -7 25 -14
24 -64 -9z m47 -10 c0 -5 -9 -17 -20 -27 -16 -15 -23 -16 -33 -6 -9 10 -8 15
7 27 22 16 46 19 46 6z"/>
<path d="M1595 368 c-2 -7 -5 -36 -8 -65 -3 -40 -1 -50 10 -46 7 3 13 11 13
17 0 16 48 42 71 38 37 -6 27 17 -17 42 -52 29 -63 31 -69 14z m44 -32 c9 -11
8 -15 -5 -20 -23 -9 -24 -8 -24 14 0 23 13 26 29 6z"/>
<path d="M683 316 c-20 -41 -21 -56 -2 -56 13 0 51 79 44 90 -11 18 -21 10
-42 -34z"/>
<path d="M1462 314 c-35 -15 -35 -17 -11 -81 11 -29 43 -32 34 -3 -5 15 1 22
30 34 29 12 36 20 33 38 -4 28 -39 33 -86 12z m58 -18 c0 -20 -40 -32 -51 -15
-5 9 -2 16 9 21 28 11 42 9 42 -6z"/>
<path d="M794 283 c3 -21 6 -45 6 -54 0 -34 29 -28 69 14 28 29 36 43 26 45
-8 2 -28 -12 -44 -30 l-30 -33 -1 48 c0 37 -4 47 -16 47 -14 0 -15 -7 -10 -37z"/>
<path d="M911 243 c-14 -51 -14 -63 3 -63 8 0 17 14 21 33 4 17 9 40 11 50 4
11 0 17 -10 17 -9 0 -19 -15 -25 -37z"/>
<path d="M967 249 c-4 -13 -7 -36 -7 -50 0 -24 4 -27 43 -32 51 -5 87 14 87
47 0 32 -22 48 -74 53 -39 5 -44 3 -49 -18z m88 -34 c0 -27 -4 -30 -32 -33
-30 -3 -33 -1 -33 26 0 36 8 44 40 40 20 -2 25 -8 25 -33z"/>
<path d="M1265 219 c-17 -51 -13 -77 8 -48 15 20 77 36 77 20 0 -6 9 -11 20
-11 28 0 25 9 -15 53 -49 52 -69 49 -90 -14z m50 -7 c-22 -5 -27 1 -19 23 7
17 8 17 21 -1 12 -17 12 -19 -2 -22z"/>
<path d="M1110 254 c0 -3 9 -17 20 -31 11 -14 20 -34 20 -44 0 -11 7 -19 15
-19 8 0 15 8 15 18 0 9 9 28 20 42 11 14 20 28 20 33 0 15 -22 6 -40 -15 l-17
-22 -12 22 c-10 20 -41 31 -41 16z"/>
<path d="M711 200 c0 -8 3 -21 7 -28 6 -9 13 -7 27 10 11 13 13 17 5 11 -19
-17 -28 -16 -33 5 -3 12 -5 13 -6 2z"/>
<path d="M1557 190 c-3 -11 -1 -20 4 -20 5 0 9 5 9 11 0 5 5 7 11 3 7 -4 10
-1 7 6 -7 22 -25 22 -31 0z"/>
<path d="M1525 190 c-3 -5 -2 -17 3 -26 8 -14 10 -14 15 5 5 22 -7 38 -18 21z"/>
<path d="M776 174 c-4 -9 -4 -19 -1 -22 2 -3 7 3 11 12 4 9 4 19 1 22 -2 3 -7
-3 -11 -12z"/>
<path d="M1467 173 c-11 -10 -8 -45 3 -38 6 4 7 11 4 17 -4 7 2 8 17 3 21 -7
22 -6 10 9 -14 17 -24 20 -34 9z"/>
<path d="M810 161 c0 -6 0 -14 0 -18 0 -5 9 -9 20 -9 11 -1 20 3 20 8 0 5 -10
6 -22 3 -16 -4 -19 -3 -9 3 9 7 10 12 2 16 -6 4 -11 2 -11 -3z"/>
<path d="M1417 146 c-3 -8 -2 -18 4 -22 16 -9 22 2 11 21 -8 15 -10 16 -15 1z"/>
<path d="M879 133 c-7 -10 -10 -15 -5 -11 5 4 17 3 28 -3 16 -9 19 -8 16 7 -4
25 -23 28 -39 7z"/>
<path d="M1330 130 c0 -11 5 -20 11 -20 5 0 7 5 3 11 -3 6 0 15 7 20 11 7 10
9 -3 9 -11 0 -18 -8 -18 -20z"/>
<path d="M1380 130 c0 -11 2 -20 4 -20 2 0 6 9 9 20 3 11 1 20 -4 20 -5 0 -9
-9 -9 -20z"/>
<path d="M950 115 c0 -15 2 -17 9 -6 6 9 11 10 15 2 4 -6 13 -11 19 -11 7 0 6
4 -3 10 -13 9 -13 11 -1 19 10 7 7 9 -12 8 -20 -2 -27 -7 -27 -22z"/>
<path d="M1021 105 c0 -11 3 -14 6 -7 2 6 11 12 19 12 8 0 14 -6 14 -12 0 -9
4 -8 10 2 15 23 12 27 -20 26 -23 -1 -30 -5 -29 -21z"/>
<path d="M1102 110 c-7 -13 -8 -20 -2 -20 6 0 13 7 16 15 6 14 8 13 21 -2 13
-16 13 -16 3 5 -13 27 -22 28 -38 2z"/>
<path d="M1170 110 c0 -23 4 -24 31 -10 27 15 24 30 -6 30 -18 0 -25 -5 -25
-20z m37 4 c-3 -3 -12 -4 -19 -1 -8 3 -5 6 6 6 11 1 17 -2 13 -5z"/>
<path d="M1250 110 c-9 -16 -8 -18 5 -14 8 3 12 10 9 15 -3 5 0 9 5 9 6 0 11
-4 11 -10 0 -5 5 -10 11 -10 8 0 8 5 -1 15 -17 20 -27 19 -40 -5z"/>
</g>
</svg>
